<?xml version="1.0" encoding="UTF-8" standalone="no"?>
<!-- Created with Inkscape (http://www.inkscape.org/) -->

<svg
   version="1.1"
   id="svg1"
   width="1024"
   height="1024"
   viewBox="0 0 1024 1024"
   sodipodi:docname="ChatGPT Image 21 de mai. de 2026, 23_07_59.svg"
   inkscape:version="1.4.3 (0d15f75, 2025-12-25)"
   xmlns:inkscape="http://www.inkscape.org/namespaces/inkscape"
   xmlns:sodipodi="http://sodipodi.sourceforge.net/DTD/sodipodi-0.dtd"
   xmlns="http://www.w3.org/2000/svg"
   xmlns:svg="http://www.w3.org/2000/svg">
  <defs
     id="defs1" />
  <sodipodi:namedview
     id="namedview1"
     pagecolor="#ffffff"
     bordercolor="#000000"
     borderopacity="0.25"
     inkscape:showpageshadow="2"
     inkscape:pageopacity="0.0"
     inkscape:pagecheckerboard="0"
     inkscape:deskcolor="#d1d1d1"
     showgrid="false"
     inkscape:zoom="0.55726091"
     inkscape:cx="523.09429"
     inkscape:cy="561.67586"
     inkscape:window-width="1055"
     inkscape:window-height="1000"
     inkscape:window-x="-7"
     inkscape:window-y="0"
     inkscape:window-maximized="0"
     inkscape:current-layer="g1" />
  <g
     inkscape:groupmode="layer"
     inkscape:label="Image"
     id="g1">
    <g
       id="g1351"
       transform="translate(7.1779663,80.752115)">
      <path
         style="fill:#13adf6"
         d="m 803.44688,485.91918 c -7.2327,-3.58012 -10.75247,-9.76887 -18.73466,-32.94087 -3.11398,-9.03977 -8.15352,-21.83594 -11.19897,-28.43594 -13.77391,-29.85038 -15.76748,-36.9086 -15.08731,-53.41671 0.3869,-9.39055 0.82725,-11.52917 3.58912,-17.43115 3.99158,-8.52981 12.63456,-17.72339 20.11915,-21.40083 4.97521,-2.4445 6.7127,-2.75093 15.59884,-2.75111 9.97541,-2e-4 10.02744,0.0127 21.15769,5.24055 19.25589,9.04448 21.98935,9.04524 42.34231,0.0118 10.01344,-4.44438 12.54594,-5.16121 19.59137,-5.54542 14.04939,-0.76615 24.23321,3.76188 32.90016,14.62841 5.90146,7.39919 8.53492,14.59452 9.22294,25.19965 0.93127,14.35447 -1.89373,24.87605 -13.58081,50.581 -2.77976,6.11389 -8.03155,19.83889 -11.67064,30.5 -7.55856,22.14358 -10.12393,27.3948 -16.05307,32.86009 -11.15465,10.28199 -21.28428,5.18422 -34.41021,-17.31703 -3.41988,-5.86257 -6.58438,-10.65921 -7.03221,-10.65921 -0.44783,0 -3.63428,4.96894 -7.08099,11.0421 -11.86411,20.90471 -18.52116,25.35461 -29.67271,19.83471 z m 12.58484,-15.62478 c 5.00613,-7.10983 16.20133,-26.29621 16.20133,-27.76592 0,-0.90654 -4.7247,-6.3104 -10.49935,-12.00857 -5.77464,-5.69817 -10.06002,-10.63183 -9.52307,-10.96369 1.24814,-0.77139 8.47583,1.16529 13.0168,3.48788 1.92809,0.98617 5.59967,3.63922 8.15907,5.89565 2.5594,2.25644 5.06011,4.10262 5.55713,4.10262 0.49703,0 3.01634,-2.8773 5.59848,-6.39399 7.09175,-9.65848 13.40852,-16.34717 21.56325,-22.83287 8.03282,-6.38874 16.61621,-11.20729 18.20959,-10.22253 0.5538,0.34227 -2.28877,4.2959 -6.31683,8.78585 -4.02805,4.48994 -9.18252,10.4276 -11.45437,13.19478 -5.32359,6.4843 -19.3107,26.45467 -19.3107,27.57122 0,2.18148 19.18742,30.03509 21.23786,30.83014 5.45258,2.11423 9.39155,-4.48343 17.65808,-29.57676 3.23526,-9.82071 8.66468,-24.13068 12.06539,-31.79993 11.37838,-25.6604 13.74402,-36.35069 10.68569,-48.2885 -3.30169,-12.88775 -10.72193,-19.94311 -22.70729,-21.59068 -5.87329,-0.80738 -12.82055,1.06601 -24.43244,6.58841 l -11.00729,5.23486 -10.5,-0.022 c -9.71718,-0.0204 -11.05915,-0.27113 -18,-3.36319 -17.14578,-7.63822 -19.47704,-8.42411 -25,-8.4278 -13.18772,-0.009 -23.55488,11.2889 -25.52217,27.81303 -1.24855,10.48707 1.99453,21.85443 13.48812,47.27749 2.80417,6.20263 7.72879,19.02763 10.94361,28.5 3.21482,9.47238 6.87216,19.32329 8.12742,21.89092 3.594,7.35154 7.55801,8.05378 11.76169,2.08362 z m -684.98617,10.06485 c 0.72188,-0.28887 1.58438,-0.25334 1.91667,0.079 0.33229,0.33229 -0.25833,0.56864 -1.3125,0.52522 -1.16494,-0.048 -1.4019,-0.28494 -0.60417,-0.60417 z m 20,0 c 0.72188,-0.28887 1.58438,-0.25334 1.91667,0.079 0.33229,0.33229 -0.25833,0.56864 -1.3125,0.52522 -1.16494,-0.048 -1.4019,-0.28494 -0.60417,-0.60417 z m 110,0 c 0.72188,-0.28887 1.58438,-0.25334 1.91667,0.079 0.33229,0.33229 -0.25833,0.56864 -1.3125,0.52522 -1.16494,-0.048 -1.4019,-0.28494 -0.60417,-0.60417 z m 18.9375,0.0208 c 0.6875,-0.27742 1.8125,-0.27742 2.5,0 0.6875,0.27741 0.125,0.50438 -1.25,0.50438 -1.375,0 -1.9375,-0.22697 -1.25,-0.50438 z m 240.0625,-0.0208 c 0.72188,-0.28887 1.58438,-0.25334 1.91667,0.079 0.33229,0.33229 -0.25833,0.56864 -1.3125,0.52522 -1.16494,-0.048 -1.4019,-0.28494 -0.60417,-0.60417 z m 15,0 c 0.72188,-0.28887 1.58438,-0.25334 1.91667,0.079 0.33229,0.33229 -0.25833,0.56864 -1.3125,0.52522 -1.16494,-0.048 -1.4019,-0.28494 -0.60417,-0.60417 z m -410,-1 c 0.72188,-0.28887 1.58438,-0.25334 1.91667,0.079 0.33229,0.33229 -0.25833,0.56864 -1.3125,0.52522 -1.16494,-0.048 -1.4019,-0.28494 -0.60417,-0.60417 z m 33,0 c 0.72188,-0.28887 1.58438,-0.25334 1.91667,0.079 0.33229,0.33229 -0.25833,0.56864 -1.3125,0.52522 -1.16494,-0.048 -1.4019,-0.28494 -0.60417,-0.60417 z m 269.64153,-2.57608 c -0.26576,-0.69256 -0.36365,-15.43006 -0.21755,-32.75 l 0.26566,-31.4908 0.49893,32.75049 c 0.27441,18.01277 0.37231,32.75027 0.21755,32.75 -0.15476,-2.7e-4 -0.49883,-0.56713 -0.76459,-1.25969 z m 189.79466,-0.58377 c 0.26507,-1.01363 8.84664,-13.13626 19.07017,-26.93917 10.22352,-13.80292 19.13306,-25.96863 19.79896,-27.03491 1.0712,-1.71527 -0.82507,-4.83093 -16.45354,-27.03401 -9.71535,-13.80242 -17.66428,-25.55738 -17.66428,-26.12213 0,-0.65456 5.18547,-1.02681 14.30351,-1.02681 h 14.30351 l 11.24286,16.5 c 6.18357,9.075 11.64925,16.5 12.14596,16.5 0.49671,0 3.04565,-3.0375 5.6643,-6.75 2.61865,-3.7125 8.05783,-11.1375 12.08707,-16.5 l 7.32588,-9.75 h 13.40444 c 7.37244,0 13.66431,0.42048 13.98194,0.93441 0.31763,0.51393 -8.04695,12.46395 -18.58795,26.55559 l -19.16545,25.62116 1.98924,2.69442 c 11.1376,15.08581 37.30469,52.38664 37.30469,53.1773 0,0.64099 -5.17005,1.01712 -13.98061,1.01712 h -13.9806 l -3.50246,-4.75 c -1.92634,-2.6125 -7.89757,-11.23014 -13.26939,-19.1503 -5.37181,-7.92016 -10.16778,-14.44516 -10.65769,-14.5 -0.48992,-0.0548 -6.96898,8.5628 -14.39792,19.1503 l -13.50717,19.25 H 630.9685 c -13.07963,0 -13.93804,-0.1173 -13.48676,-1.84297 z M 347.46066,423.35138 c -0.12518,-29.80504 0.10989,-54.39984 0.52239,-54.65511 0.6812,-0.42155 0.67012,39.08638 -0.0251,89.3461 -0.14834,10.725 -0.37214,-4.88595 -0.49733,-34.69099 z m 103.22195,18.69099 c 0,-18.975 0.13448,-26.7375 0.29884,-17.25 0.16435,9.4875 0.16435,25.0125 0,34.5 -0.16436,9.4875 -0.29884,1.725 -0.29884,-17.25 z m 101.55044,32.62244 c 0,-0.20765 0.7875,-0.99515 1.75,-1.75 1.58606,-1.24387 1.62143,-1.2085 0.37756,0.37756 -1.30637,1.66574 -2.12756,2.19547 -2.12756,1.37244 z M 106.67418,472.4872 c -1.86402,-1.49339 -1.85175,-1.51186 0.30887,-0.46482 1.2375,0.5997 2.25,1.29952 2.25,1.55517 0,0.76522 -0.51861,0.54424 -2.55887,-1.09035 z m 392.96386,-1.69483 -1.90499,-2.25 2.25,1.90498 c 2.11445,1.79022 2.70524,2.59502 1.90499,2.59502 -0.18976,0 -1.20226,-1.0125 -2.25,-2.25 z m -265.53254,-1.5 c -1.24387,-1.58606 -1.2085,-1.62143 0.37755,-0.37756 1.66575,1.30637 2.19548,2.12756 1.37245,2.12756 -0.20766,0 -0.99516,-0.7875 -1.75,-1.75 z m -139.41004,-6.5 -4.962408,-5.25 5.25,4.9624 c 4.878394,4.61116 5.708598,5.5376 4.962408,5.5376 -0.158175,0 -2.520675,-2.3625 -5.25,-5.25 z m 215.53759,4.93709 c 0,-0.1721 1.4625,-1.6346 3.25,-3.25 l 3.25,-2.93709 -2.93709,3.25 c -2.73778,3.02945 -3.56291,3.70965 -3.56291,2.93709 z m -174.25,-7.34937 c 0.6875,-0.27742 1.8125,-0.27742 2.5,0 0.6875,0.27741 0.125,0.50438 -1.25,0.50438 -1.375,0 -1.9375,-0.22697 -1.25,-0.50438 z m 10.0625,-0.0208 c 0.72188,-0.28887 1.58438,-0.25334 1.91667,0.079 0.33229,0.33229 -0.25833,0.56864 -1.3125,0.52522 -1.16494,-0.048 -1.4019,-0.28494 -0.60417,-0.60417 z m 78.05995,-1.06688 c -1.24387,-1.58606 -1.2085,-1.62143 0.37755,-0.37756 0.9625,0.75485 1.75,1.54235 1.75,1.75 0,0.82303 -0.82118,0.2933 -2.12755,-1.37244 z m 42.87755,1.08772 c 0.6875,-0.27742 1.8125,-0.27742 2.5,0 0.6875,0.27741 0.125,0.50438 -1.25,0.50438 -1.375,0 -1.9375,-0.22697 -1.25,-0.50438 z m 8,0 c 0.6875,-0.27742 1.8125,-0.27742 2.5,0 0.6875,0.27741 0.125,0.50438 -1.25,0.50438 -1.375,0 -1.9375,-0.22697 -1.25,-0.50438 z m -13.9375,-1.02084 c 0.72188,-0.28887 1.58438,-0.25334 1.91667,0.079 0.33229,0.33229 -0.25833,0.56864 -1.3125,0.52522 -1.16494,-0.048 -1.4019,-0.28494 -0.60417,-0.60417 z m 53.05995,-1.06688 c -1.24387,-1.58606 -1.2085,-1.62143 0.37755,-0.37756 1.66575,1.30637 2.19548,2.12756 1.37245,2.12756 -0.20766,0 -0.99516,-0.7875 -1.75,-1.75 z m 211.94005,1.06688 c 0.72188,-0.28887 1.58438,-0.25334 1.91667,0.079 0.33229,0.33229 -0.25833,0.56864 -1.3125,0.52522 -1.16494,-0.048 -1.4019,-0.28494 -0.60417,-0.60417 z m 9,0 c 0.72188,-0.28887 1.58438,-0.25334 1.91667,0.079 0.33229,0.33229 -0.25833,0.56864 -1.3125,0.52522 -1.16494,-0.048 -1.4019,-0.28494 -0.60417,-0.60417 z m -247.8125,-1.7099 c 0,-0.21615 0.69837,-0.661 1.55194,-0.98854 0.88993,-0.3415 1.29132,-0.17385 0.94098,0.39301 -0.58725,0.9502 -2.49292,1.40545 -2.49292,0.59553 z m 258,-1.60698 c 0.825,-0.53316 1.95,-0.96938 2.5,-0.96938 0.55,0 0.325,0.43622 -0.5,0.96938 -0.825,0.53315 -1.95,0.96937 -2.5,0.96937 -0.55,0 -0.325,-0.43622 0.5,-0.96937 z m -237.07568,-2.75 -2.42432,-2.75 2.75,2.42431 c 2.57029,2.26589 3.20859,3.07569 2.42432,3.07569 -0.17913,0 -1.41663,-1.2375 -2.75,-2.75 z m -190.05187,0 c -1.24387,-1.58606 -1.2085,-1.62143 0.37755,-0.37756 0.9625,0.75485 1.75,1.54235 1.75,1.75 0,0.82303 -0.82118,0.2933 -2.12755,-1.37244 z m 178.12755,-0.62756 c 0,-0.20765 0.7875,-0.99515 1.75,-1.75 1.58606,-1.24387 1.62143,-1.2085 0.37756,0.37756 -1.30637,1.66574 -2.12756,2.19547 -2.12756,1.37244 z M 490.312,450.45903 c 0.048,-1.16494 0.28494,-1.4019 0.60417,-0.60416 0.28887,0.72187 0.25334,1.58437 -0.079,1.91666 -0.33229,0.33229 -0.56864,-0.25833 -0.52522,-1.3125 z m 23.07895,-4.41666 c 0,-1.375 0.22697,-1.9375 0.50438,-1.25 0.27742,0.6875 0.27742,1.8125 0,2.5 -0.27741,0.6875 -0.50438,0.125 -0.50438,-1.25 z m -273.20373,-3.08565 c -0.61392,-1.14711 -0.92785,-2.27401 -0.69763,-2.50423 0.23022,-0.23022 0.93203,0.70833 1.55958,2.08565 1.37807,3.02454 0.70709,3.35037 -0.86195,0.41858 z m -3.95417,-11.35534 c 0,-0.79254 0.40804,-1.69316 0.90674,-2.00138 0.49871,-0.30822 0.67123,0.34023 0.38337,1.44099 -0.61061,2.33498 -1.29011,2.63014 -1.29011,0.56039 z M 79.390947,429.04237 c 0,-1.375 0.226974,-1.9375 0.504386,-1.25 0.277412,0.6875 0.277412,1.8125 0,2.5 -0.277412,0.6875 -0.504386,0.125 -0.504386,-1.25 z m 133.151973,-7.5 c 0.006,-3.3 0.1923,-4.52944 0.41486,-2.73209 0.22256,1.79735 0.21797,4.49735 -0.0102,6 -0.22818,1.50265 -0.41027,0.0321 -0.40466,-3.26791 z m -110.0102,-0.5 c 0,-3.025 0.18746,-4.2625 0.41659,-2.75 0.22912,1.5125 0.22912,3.9875 0,5.5 -0.22913,1.5125 -0.41659,0.275 -0.41659,-2.75 z m -23.141773,-7 c 0,-1.375 0.226974,-1.9375 0.504386,-1.25 0.277412,0.6875 0.277412,1.8125 0,2.5 -0.277412,0.6875 -0.504386,0.125 -0.504386,-1.25 z M 322.312,412.45903 c 0.048,-1.16494 0.28494,-1.4019 0.60417,-0.60416 0.28887,0.72187 0.25334,1.58437 -0.079,1.91666 -0.33229,0.33229 -0.56864,-0.25833 -0.52522,-1.3125 z m -1,-6 c 0.048,-1.16494 0.28494,-1.4019 0.60417,-0.60416 0.28887,0.72187 0.25334,1.58437 -0.079,1.91666 -0.33229,0.33229 -0.56864,-0.25833 -0.52522,-1.3125 z m 128,-7 c 0.048,-1.16494 0.28494,-1.4019 0.60417,-0.60416 0.28887,0.72187 0.25334,1.58437 -0.079,1.91666 -0.33229,0.33229 -0.56864,-0.25833 -0.52522,-1.3125 z m -282.51465,-1.12354 c -0.54269,-1.42519 -0.42783,-1.54006 0.55979,-0.55979 0.68342,0.67833 0.99067,1.48524 0.68278,1.79313 -0.30788,0.30788 -0.86704,-0.24712 -1.24257,-1.23334 z m -54.0643,-3.29312 c 2.14824,-2.2 4.1309,-4 4.4059,-4 0.275,0 -1.25766,1.8 -3.4059,4 -2.14824,2.2 -4.13089,4 -4.40589,4 -0.275,0 1.25765,-1.8 3.40589,-4 z m 177.44617,-1.75 -3.44617,-3.75 3.75,3.44616 c 2.0625,1.89539 3.75,3.58289 3.75,3.75 0,0.76362 -0.84621,0.0442 -4.05383,-3.44616 z m -44.94617,0.25 c 1.29175,-1.375 2.57363,-2.5 2.84863,-2.5 0.275,0 -0.55688,1.125 -1.84863,2.5 -1.29174,1.375 -2.57363,2.5 -2.84863,2.5 -0.275,0 0.55689,-1.125 1.84863,-2.5 z m 174.40499,0.25 -1.90499,-2.25 2.25,1.90498 c 1.2375,1.04775 2.25,2.06025 2.25,2.25 0,0.80026 -0.80479,0.20946 -2.59501,-1.90498 z m -299.96386,-4.19484 c 1.06762,-0.85534 2.38012,-1.55516 2.91667,-1.55516 1.27054,0 0.70323,0.4619 -2.3578,1.91971 -2.35727,1.12264 -2.38917,1.10183 -0.55887,-0.36455 z m 293.55887,-0.0552 c -1.375,-0.78603 -2.02351,-1.44508 -1.44113,-1.46457 0.58238,-0.0195 1.93238,0.62525 3,1.43276 2.46898,1.86744 1.68039,1.88353 -1.55887,0.0318 z m -28.26666,-0.62409 c 0.67833,-0.68342 1.48524,-0.99067 1.79312,-0.68279 0.30789,0.30789 -0.24711,0.86705 -1.23333,1.24258 -1.4252,0.54269 -1.54006,0.42782 -0.55979,-0.55979 z M 90.233052,386.66481 c 0,-0.20765 0.7875,-0.99515 1.75,-1.75 1.586056,-1.24387 1.621426,-1.2085 0.377556,0.37756 -1.30637,1.66574 -2.127556,2.19547 -2.127556,1.37244 z m 301.812498,-0.30556 c 0.72188,-0.28887 1.58438,-0.25334 1.91667,0.079 0.33229,0.33229 -0.25833,0.56864 -1.3125,0.52522 -1.16494,-0.048 -1.4019,-0.28494 -0.60417,-0.60417 z m 13,0 c 0.72188,-0.28887 1.58438,-0.25334 1.91667,0.079 0.33229,0.33229 -0.25833,0.56864 -1.3125,0.52522 -1.16494,-0.048 -1.4019,-0.28494 -0.60417,-0.60417 z m -274,-1 c 0.72188,-0.28887 1.58438,-0.25334 1.91667,0.079 0.33229,0.33229 -0.25833,0.56864 -1.3125,0.52522 -1.16494,-0.048 -1.4019,-0.28494 -0.60417,-0.60417 z m 130,0 c 0.72188,-0.28887 1.58438,-0.25334 1.91667,0.079 0.33229,0.33229 -0.25833,0.56864 -1.3125,0.52522 -1.16494,-0.048 -1.4019,-0.28494 -0.60417,-0.60417 z m 14,0 c 0.72188,-0.28887 1.58438,-0.25334 1.91667,0.079 0.33229,0.33229 -0.25833,0.56864 -1.3125,0.52522 -1.16494,-0.048 -1.4019,-0.28494 -0.60417,-0.60417 z m -48.8125,-2.62979 c 0,-0.1721 1.4625,-1.6346 3.25,-3.25 l 3.25,-2.93709 -2.93709,3.25 c -2.73778,3.02945 -3.56291,3.70965 -3.56291,2.93709 z M 94.233052,381.66481 c 0,-0.20765 0.7875,-0.99515 1.75,-1.75 1.586056,-1.24387 1.621426,-1.2085 0.377556,0.37756 -1.30637,1.66574 -2.127556,2.19547 -2.127556,1.37244 z m 212.404988,-2.87244 -1.90499,-2.25 2.25,1.90498 c 1.2375,1.04775 2.25,2.06025 2.25,2.25 0,0.80026 -0.80479,0.20946 -2.59501,-1.90498 z m -5.53254,-4.5 c -1.24387,-1.58606 -1.2085,-1.62143 0.37755,-0.37756 1.66575,1.30637 2.19548,2.12756 1.37245,2.12756 -0.20766,0 -0.99516,-0.7875 -1.75,-1.75 z m 75.12755,0.37244 c 0,-0.20765 0.7875,-0.99515 1.75,-1.75 1.58606,-1.24387 1.62143,-1.2085 0.37756,0.37756 -1.30637,1.66574 -2.12756,2.19547 -2.12756,1.37244 z m 57.87245,-1.37244 c -1.24387,-1.58606 -1.2085,-1.62143 0.37755,-0.37756 0.9625,0.75485 1.75,1.54235 1.75,1.75 0,0.82303 -0.82118,0.2933 -2.12755,-1.37244 z m -138.87245,-2.25 c -0.90129,-0.58246 -1.02463,-0.97549 -0.30901,-0.98469 0.65504,-0.008 1.46909,0.43469 1.80901,0.98469 0.76731,1.24152 0.42113,1.24152 -1.5,0 z m 87.73334,-1.12409 c 0.67833,-0.68342 1.48524,-0.99067 1.79312,-0.68279 0.30789,0.30789 -0.24711,0.86705 -1.23333,1.24258 -1.4252,0.54269 -1.54006,0.42782 -0.55979,-0.55979 z m -257.92084,-4.55903 c 0.72188,-0.28887 1.58438,-0.25334 1.91667,0.079 0.33229,0.33229 -0.25833,0.56864 -1.3125,0.52522 -1.16494,-0.048 -1.4019,-0.28494 -0.60417,-0.60417 z m 19,0 c 0.72188,-0.28887 1.58438,-0.25334 1.91667,0.079 0.33229,0.33229 -0.25833,0.56864 -1.3125,0.52522 -1.16494,-0.048 -1.4019,-0.28494 -0.60417,-0.60417 z m 114,0 c 0.72188,-0.28887 1.58438,-0.25334 1.91667,0.079 0.33229,0.33229 -0.25833,0.56864 -1.3125,0.52522 -1.16494,-0.048 -1.4019,-0.28494 -0.60417,-0.60417 z m 20,0 c 0.72188,-0.28887 1.58438,-0.25334 1.91667,0.079 0.33229,0.33229 -0.25833,0.56864 -1.3125,0.52522 -1.16494,-0.048 -1.4019,-0.28494 -0.60417,-0.60417 z m 118,0 c 0.72188,-0.28887 1.58438,-0.25334 1.91667,0.079 0.33229,0.33229 -0.25833,0.56864 -1.3125,0.52522 -1.16494,-0.048 -1.4019,-0.28494 -0.60417,-0.60417 z m 18,0 c 0.72188,-0.28887 1.58438,-0.25334 1.91667,0.079 0.33229,0.33229 -0.25833,0.56864 -1.3125,0.52522 -1.16494,-0.048 -1.4019,-0.28494 -0.60417,-0.60417 z m 163.11182,-15.06688 -2.42432,-2.75 2.75,2.42431 c 2.57029,2.26589 3.20859,3.07569 2.42432,3.07569 -0.17913,0 -1.41663,-1.2375 -2.75,-2.75 z m 27.30768,-10.25 c 0,-1.925 0.2058,-2.7125 0.45733,-1.75 0.25153,0.9625 0.25153,2.5375 0,3.5 -0.25153,0.9625 -0.45733,0.175 -0.45733,-1.75 z m -28.232,-10.37756 c 0,-0.20765 0.7875,-0.99515 1.75,-1.75 1.58606,-1.24387 1.62143,-1.2085 0.37756,0.37756 -1.30637,1.66574 -2.12756,2.19547 -2.12756,1.37244 z m 20,-3.62244 c -0.90129,-0.58246 -1.02463,-0.97549 -0.30901,-0.98469 0.65504,-0.008 1.46909,0.43469 1.80901,0.98469 0.76731,1.24152 0.42113,1.24152 -1.5,0 z m -427.34549,-6.25 c 0.25494,-0.4125 4.91041,-0.75 10.34549,-0.75 5.43508,0 10.09055,0.3375 10.34549,0.75 0.25494,0.4125 -4.40053,0.75 -10.34549,0.75 -5.94496,0 -10.60043,-0.3375 -10.34549,-0.75 z"
         id="path1352" />
      <path
         style="fill:#ffffff"
         d="m 127.23305,479.61477 c -12.93508,-2.74192 -22.06399,-7.46537 -30.797309,-15.93502 -6.961903,-6.75172 -10.477463,-12.39896 -13.781123,-22.13738 -3.687431,-10.86969 -3.976447,-26.48441 -0.685609,-37.04153 3.723339,-11.9446 12.266702,-23.61072 22.042631,-30.09961 16.90153,-11.21859 39.66737,-12.34363 56.99935,-2.81678 3.46,1.90185 6.49319,3.45792 6.74041,3.45792 0.24723,0 0.56924,-12.2625 0.71558,-27.25 l 0.26607,-27.25 h 10.5 10.5 l 0.25675,70.89737 0.25675,70.89738 -4.04668,3.73588 c -4.93845,4.55915 -16.36912,10.40582 -24.46682,12.51452 -8.4391,2.1976 -26.44905,2.73385 -34.5,1.02725 z m 24.5,-19.9285 c 5.97285,-1.59159 11.17473,-4.12324 14.25,-6.93519 2.22344,-2.03305 2.25,-2.36583 2.25,-28.18686 V 398.4347 l -3.25,-3.13878 c -1.7875,-1.72633 -6.4,-4.62711 -10.25,-6.44617 -6.49508,-3.06882 -7.72132,-3.30475 -17,-3.27087 -8.0508,0.0294 -10.91021,0.45432 -14.66967,2.18003 -22.42262,10.29265 -27.617235,41.43819 -10.07201,60.38912 10.36537,11.19584 24.37197,15.36736 38.74168,11.53824 z m 105.5,19.86552 c -20.88053,-4.72406 -37.63825,-21.14631 -42.46256,-41.61254 -1.95059,-8.27502 -1.95842,-23.82772 -0.0158,-31.43679 5.18649,-20.3152 20.89907,-35.89749 40.35638,-40.02174 26.53009,-5.62343 51.07268,5.06176 61.52092,26.78456 4.20635,8.74535 6.84749,20.89868 6.40289,29.46318 l -0.30181,5.81391 -43,0.5 -43,0.5 0.26711,3.34809 c 0.69706,8.7373 9.26444,20.06482 18.64384,24.65025 6.9712,3.40811 17.94671,4.29873 26.36522,2.13943 5.8304,-1.49546 16.13475,-7.06659 17.67255,-9.55479 1.35149,-2.18676 4.20034,-0.86044 10.54641,4.91001 l 6.49512,5.90599 -3.49512,3.68184 c -5.17011,5.44632 -14.47493,11.1755 -21.923,13.49847 -8.75743,2.73134 -25.25921,3.42398 -34.07213,1.43013 z m 42.33674,-69.25942 c 0.25012,-0.4125 -0.46594,-3.20947 -1.59125,-6.21549 -2.70359,-7.22202 -10.4747,-15.07278 -17.18212,-17.35822 -5.4667,-1.86269 -17.08759,-2.21403 -22.59789,-0.68321 -9.26124,2.57288 -19.26664,12.92561 -20.63373,21.35003 l -0.59343,3.65689 h 31.07182 c 17.08951,0 31.27648,-0.3375 31.5266,-0.75 z m 218.93296,69.76189 c -11.67185,-2.48561 -21.26516,-10.33987 -25.43427,-20.82363 -2.13891,-5.37856 -2.29129,-7.45776 -2.79875,-38.18826 l -0.53668,-32.5 -9.5,-0.5 -9.5,-0.5 v -9.5 -9.5 l 9.5,-0.5 9.5,-0.5 0.5,-14.5 0.5,-14.5 9.85242,-0.28745 c 6.4056,-0.18689 10.34135,0.11833 11.25,0.87244 1.07371,0.89111 1.39758,4.37046 1.39758,15.01438 v 13.85448 l 17.75,0.27307 17.75,0.27308 v 9.5 9.5 l -17.79083,0.27324 -17.79084,0.27324 0.29084,30.90531 c 0.27678,29.41244 0.39043,31.03861 2.35262,33.66497 4.30907,5.7676 6.90084,6.88866 15.76506,6.8191 6.08685,-0.0478 9.36815,-0.60554 12.85459,-2.18508 5.6529,-2.56105 5.85598,-2.38476 8.62704,7.48943 l 2.03187,7.24021 -2.50317,1.96899 c -6.63143,5.21628 -23.74242,8.26127 -34.06748,6.06248 z M 348.4745,423.3252 l 0.25855,-54.78283 h 11 11 l 0.30479,4.75 c 0.16764,2.6125 0.55288,4.75 0.8561,4.75 0.30322,0 2.25983,-1.35318 4.34803,-3.00707 2.08821,-1.65389 6.87796,-4.46246 10.64391,-6.24128 6.47602,-3.0589 7.47054,-3.23464 18.34717,-3.24214 13.31995,-0.009 19.37264,1.57984 27.93116,7.3328 6.0555,4.07046 11.83425,12.08537 14.75945,20.47083 1.62778,4.66623 1.80939,9.15161 1.80939,44.68686 v 39.5 h -10.5 -10.5 l -0.57062,-35 c -0.65192,-39.98585 -0.94815,-41.67719 -8.60273,-49.11659 -5.82522,-5.66147 -12.11798,-7.70762 -22.14424,-7.2004 -11.37557,0.57548 -18.49725,4.89589 -23.51263,14.26408 -2.08285,3.89053 -2.18981,5.51521 -2.66978,40.55291 l -0.5,36.5 -11.25855,0.28283 -11.25856,0.28283 z m 228.23032,53.50118 c -0.27036,-0.70621 -0.37461,-25.35901 -0.23167,-54.78401 l 0.2599,-53.5 h 11 11 v 54.5 54.5 l -10.76833,0.28401 c -8.05602,0.21248 -10.89214,-0.0394 -11.2599,-1 z m 5.97866,-123.19061 c -10.17132,-4.43035 -12.33049,-18.10147 -4.01235,-25.40489 10.20547,-8.96053 25.56583,-2.07213 25.56037,11.46262 -0.004,10.99277 -11.39668,18.36392 -21.54802,13.94227 z"
         id="path1351" />
    </g>
  </g>
</svg>
