<?xml version="1.0" encoding="UTF-8" standalone="no"?>
<!-- Created with Inkscape (http://www.inkscape.org/) -->

<svg
   version="1.1"
   id="svg1"
   width="1024"
   height="1024"
   viewBox="760 315 170 180"
   sodipodi:docname="ChatGPT Image 21 de mai. de 2026, 23_07_59.svg"
   inkscape:version="1.4.3 (0d15f75, 2025-12-25)"
   xmlns:inkscape="http://www.inkscape.org/namespaces/inkscape"
   xmlns:sodipodi="http://sodipodi.sourceforge.net/DTD/sodipodi-0.dtd"
   xmlns="http://www.w3.org/2000/svg"
   xmlns:svg="http://www.w3.org/2000/svg">
  <defs
     id="defs1" />
  <sodipodi:namedview
     id="namedview1"
     pagecolor="#ffffff"
     bordercolor="#000000"
     borderopacity="0.25"
     inkscape:showpageshadow="2"
     inkscape:pageopacity="0.0"
     inkscape:pagecheckerboard="0"
     inkscape:deskcolor="#d1d1d1"
     showgrid="false"
     inkscape:zoom="0.55726091"
     inkscape:cx="523.09429"
     inkscape:cy="561.67586"
     inkscape:window-width="1055"
     inkscape:window-height="1000"
     inkscape:window-x="-7"
     inkscape:window-y="0"
     inkscape:window-maximized="0"
     inkscape:current-layer="g1" />
  <g
     inkscape:groupmode="layer"
     inkscape:label="Image"
     id="g1">
    <g
       id="g1351"
       transform="translate(7.1779663,-10.06485)">
      <path
         style="fill:#13adf6"
         d="m 803.44688,485.91918 c -7.2327,-3.58012 -10.75247,-9.76887 -18.73466,-32.94087 -3.11398,-9.03977 -8.15352,-21.83594 -11.19897,-28.43594 -13.77391,-29.85038 -15.76748,-36.9086 -15.08731,-53.41671 0.3869,-9.39055 0.82725,-11.52917 3.58912,-17.43115 3.99158,-8.52981 12.63456,-17.72339 20.11915,-21.40083 4.97521,-2.4445 6.7127,-2.75093 15.59884,-2.75111 9.97541,-2e-4 10.02744,0.0127 21.15769,5.24055 19.25589,9.04448 21.98935,9.04524 42.34231,0.0118 10.01344,-4.44438 12.54594,-5.16121 19.59137,-5.54542 14.04939,-0.76615 24.23321,3.76188 32.90016,14.62841 5.90146,7.39919 8.53492,14.59452 9.22294,25.19965 0.93127,14.35447 -1.89373,24.87605 -13.58081,50.581 -2.77976,6.11389 -8.03155,19.83889 -11.67064,30.5 -7.55856,22.14358 -10.12393,27.3948 -16.05307,32.86009 -11.15465,10.28199 -21.28428,5.18422 -34.41021,-17.31703 -3.41988,-5.86257 -6.58438,-10.65921 -7.03221,-10.65921 -0.44783,0 -3.63428,4.96894 -7.08099,11.0421 -11.86411,20.90471 -18.52116,25.35461 -29.67271,19.83471 z m 12.58484,-15.62478 c 5.00613,-7.10983 16.20133,-26.29621 16.20133,-27.76592 0,-0.90654 -4.7247,-6.3104 -10.49935,-12.00857 -5.77464,-5.69817 -10.06002,-10.63183 -9.52307,-10.96369 1.24814,-0.77139 8.47583,1.16529 13.0168,3.48788 1.92809,0.98617 5.59967,3.63922 8.15907,5.89565 2.5594,2.25644 5.06011,4.10262 5.55713,4.10262 0.49703,0 3.01634,-2.8773 5.59848,-6.39399 7.09175,-9.65848 13.40852,-16.34717 21.56325,-22.83287 8.03282,-6.38874 16.61621,-11.20729 18.20959,-10.22253 0.5538,0.34227 -2.28877,4.2959 -6.31683,8.78585 -4.02805,4.48994 -9.18252,10.4276 -11.45437,13.19478 -5.32359,6.4843 -19.3107,26.45467 -19.3107,27.57122 0,2.18148 19.18742,30.03509 21.23786,30.83014 5.45258,2.11423 9.39155,-4.48343 17.65808,-29.57676 3.23526,-9.82071 8.66468,-24.13068 12.06539,-31.79993 11.37838,-25.6604 13.74402,-36.35069 10.68569,-48.2885 -3.30169,-12.88775 -10.72193,-19.94311 -22.70729,-21.59068 -5.87329,-0.80738 -12.82055,1.06601 -24.43244,6.58841 l -11.00729,5.23486 -10.5,-0.022 c -9.71718,-0.0204 -11.05915,-0.27113 -18,-3.36319 -17.14578,-7.63822 -19.47704,-8.42411 -25,-8.4278 -13.18772,-0.009 -23.55488,11.2889 -25.52217,27.81303 -1.24855,10.48707 1.99453,21.85443 13.48812,47.27749 2.80417,6.20263 7.72879,19.02763 10.94361,28.5 3.21482,9.47238 6.87216,19.32329 8.12742,21.89092 3.594,7.35154 7.55801,8.05378 11.76169,2.08362 z"
         id="path1352" />
    </g>
  </g>
</svg>
