<?xml version="1.0" encoding="UTF-8" standalone="no"?>
<!-- Created with Inkscape (http://www.inkscape.org/) -->

<svg
   version="1.1"
   id="svg1"
   width="1024"
   height="1024"
   viewBox="0 0 1024 1024"
   sodipodi:docname="logo-dentix.svg"
   inkscape:version="1.4.3 (0d15f75, 2025-12-25)"
   xmlns:inkscape="http://www.inkscape.org/namespaces/inkscape"
   xmlns:sodipodi="http://sodipodi.sourceforge.net/DTD/sodipodi-0.dtd"
   xmlns="http://www.w3.org/2000/svg"
   xmlns:svg="http://www.w3.org/2000/svg">
  <defs
     id="defs1" />
  <sodipodi:namedview
     id="namedview1"
     pagecolor="#ffffff"
     bordercolor="#000000"
     borderopacity="0.25"
     inkscape:showpageshadow="2"
     inkscape:pageopacity="0.0"
     inkscape:pagecheckerboard="0"
     inkscape:deskcolor="#d1d1d1"
     inkscape:zoom="0.78808594"
     inkscape:cx="511.36555"
     inkscape:cy="512"
     inkscape:window-width="1920"
     inkscape:window-height="1009"
     inkscape:window-x="-8"
     inkscape:window-y="-8"
     inkscape:window-maximized="1"
     inkscape:current-layer="g1" />
  <g
     inkscape:groupmode="layer"
     inkscape:label="Image"
     id="g1">
    <g
       id="g496"
       transform="translate(-2.5377971,-32.991322)">
      <path
         style="fill:#0db2f7"
         d="m 274,702.40851 c -7.64183,-2.02837 -14.8624,-5.70214 -20.96644,-10.66755 l -5.18829,-4.22048 -3.91336,-5.8603 -3.91336,-5.86031 -2.10748,-6.64994 -2.10748,-6.64993 0.0175,-9.5 0.0175,-9.5 2.09001,-6.64993 2.09001,-6.64994 3.99389,-5.98089 3.99388,-5.9809 5.28553,-4.07775 5.28552,-4.07775 5.93096,-2.71528 5.93097,-2.71529 10.23861,-0.45536 10.23861,-0.45536 4.55113,1.14599 c 2.50312,0.63029 7.1344,2.34834 10.29174,3.81788 3.15734,1.46954 6.12724,2.6995 6.59979,2.73324 l 0.85917,0.0613 -0.15974,-22.3366 -0.15975,-22.33661 1.17301,-1.41339 1.17302,-1.4134 h 7.29577 c 4.01267,0 8.00757,0.27314 8.87755,0.60699 L 333,565.21398 v 60.81509 60.81508 l -4.04566,3.46294 c -2.22511,1.90461 -6.69633,4.87573 -9.93605,6.60248 l -5.89039,3.13954 -7.72391,1.97545 L 297.68007,704 288.59004,703.9342 279.5,703.8684 Z m 25.39486,-19.44875 6.60553,-2.04024 3.9998,-3.80492 L 314,673.30967 v -16.52983 c 0,-9.09141 -0.29156,-17.98765 -0.64792,-19.76942 l -0.64791,-3.23959 -3.24379,-3.24378 -3.24378,-3.24378 -4.60991,-2.23162 -4.60991,-2.23162 -6.24839,-1.0622 -6.24839,-1.06219 -5.68356,1.6608 -5.68357,1.6608 -4.31643,3.28573 -4.31644,3.28572 -3.26484,6.45566 -3.26484,6.45565 -0.60871,6.0691 -0.60871,6.06909 1.58333,5.43091 1.58332,5.4309 2.93505,4.61889 2.93506,4.61889 3.68762,2.81269 3.68763,2.81269 5.16754,1.78577 5.16755,1.78578 4.64466,0.0326 4.64467,0.0326 z m 86.70501,17.99222 -7.40012,-1.93789 -4.59988,-2.68703 c -2.52993,-1.47787 -7.20491,-5.16627 -10.38885,-8.19645 l -5.78898,-5.50942 -3.46712,-7.06059 -3.46712,-7.0606 -1.08217,-8.17748 -1.08217,-8.17748 1.09382,-7.04984 c 0.6016,-3.87741 1.98591,-9.42255 3.07623,-12.32252 l 1.98242,-5.27268 4.57645,-5.81344 4.57645,-5.81344 6.11346,-3.95132 6.11345,-3.95132 6.42747,-1.98524 6.42746,-1.98524 9.14467,0.0119 9.14466,0.0119 5,1.33561 c 6.51867,1.74129 12.95925,5.03777 18.29132,9.36204 l 4.29132,3.48023 3.48367,5.14919 3.48366,5.14919 1.8667,6.00467 1.86671,6.00467 0.64729,7.49533 0.64729,7.49533 -0.84016,1.23732 -0.84016,1.23731 -36.44882,0.26269 L 372.5,658.5 l -0.3098,2.17561 -0.3098,2.1756 2.17935,5.06604 2.17935,5.06604 3.99089,3.60552 c 4.49463,4.06063 8.42795,5.93002 15.80686,7.51251 l 5.06501,1.08625 6.58113,-1.14605 6.58113,-1.14606 5.79509,-2.92535 c 3.1873,-1.60894 6.07943,-3.38542 6.42696,-3.94773 L 427.11803,675 h 1.83739 1.8374 l 3.10259,3.53366 c 1.70642,1.94351 3.85042,4.67498 4.76442,6.06993 l 1.66184,2.53628 -2.91084,2.87613 c -1.60095,1.58186 -5.54032,4.44887 -8.75414,6.37113 l -5.8433,3.49501 -6.8541,1.55893 -6.8541,1.55893 -7.8026,-0.0551 -7.80259,-0.0551 z m 38.49966,-59.35075 0.53676,-1.39877 -2.53372,-5.00005 -2.53372,-5.00005 -3.78442,-3.1299 L 412.5,623.94255 407.5685,622.47128 402.637,621 h -4.137 -4.137 l -5.19559,1.54293 -5.1956,1.54292 -3.55013,3.11706 -3.55012,3.11705 -2.50393,4.94125 -2.50392,4.94125 0.53676,1.39877 L 372.93723,643 H 398.5 424.06277 Z m 176.32982,60.09313 c -2.51386,-0.71176 -6.662,-2.51972 -9.2181,-4.01769 l -4.64745,-2.72359 -2.92118,-4.24579 c -1.60666,-2.33519 -3.48164,-6.03714 -4.16663,-8.22655 L 578.73055,678.5 578.11528,652 577.5,625.5 l -7,-0.5 -7,-0.5 -0.295,-7.91317 -0.295,-7.91317 1.295,-0.82152 1.295,-0.82151 6.25,-0.0153 L 578,607 v -11.41821 c 0,-6.28002 0.27314,-12.13002 0.60699,-13 L 579.21398,581 H 589 h 9.78602 l 0.60699,1.58179 c 0.33385,0.86998 0.60699,6.70855 0.60699,12.9746 v 11.39282 l 15.75,0.2754 15.75,0.27539 v 8.5 8.5 l -15.5,0.5 -15.5,0.5 -0.26894,22.81298 -0.26893,22.81298 1.97995,4.476 1.97995,4.47601 4.70965,2.0833 4.70965,2.08331 5.09267,-0.52561 5.09267,-0.52561 3.64577,-1.73855 3.64577,-1.73855 1.48737,0.57076 1.48737,0.57076 1.24679,6.97659 1.24678,6.97658 -0.63145,1.64553 -0.63145,1.64553 -4.76181,2.11608 -4.76181,2.11608 -10,0.32715 -10,0.32715 z M 462.45793,699.75 c -0.26361,-0.6875 -0.36199,-21.725 -0.21861,-46.75 l 0.26068,-45.5 8.75368,-0.28899 8.75367,-0.28898 1.19881,2.78898 c 0.65934,1.53395 1.27741,2.92121 1.37348,3.08282 0.0961,0.1616 2.80273,-1.28929 6.01479,-3.22421 l 5.8401,-3.51803 5.48406,-1.13849 5.48407,-1.13849 8.54867,0.46696 8.54867,0.46695 5.70163,2.19949 5.70163,2.19949 5.0178,4.51143 5.01779,4.51143 3.01076,6.18482 3.01076,6.18482 1.04693,7 1.04693,7 -0.27712,28 -0.27711,28 H 541 530.5 l -0.53063,-31 -0.53063,-31 -1.28798,-2.99557 c -0.70839,-1.64756 -2.40818,-4.46421 -3.7773,-6.25923 l -2.48932,-3.26366 -4.19207,-2.17098 -4.19207,-2.17099 h -6.5 -6.5 l -4.21184,2.18107 c -5.25117,2.71928 -8.00422,5.54995 -10.38649,10.67936 l -1.85775,4 -0.022,29.66821 -0.022,29.66822 -0.60699,1.58178 L 482.78602,701 h -9.92439 -9.9244 z M 653.24009,654.28509 653.5,607.5 h 10 10 v 46.5 46.5 l -10.25991,0.28509 -10.25991,0.2851 z M 689,699.99444 c 0,-0.97237 7.53347,-11.10677 24.52661,-32.99444 4.4836,-5.775 8.90469,-11.66674 9.82466,-13.09275 l 1.67268,-2.59275 -6.51385,-8.90725 c -3.58261,-4.89899 -10.59314,-14.41396 -15.57894,-21.14438 l -9.0651,-12.23713 0.62599,-1.01287 L 695.11803,607 h 10.86956 10.86955 l 1.52628,1.52628 c 0.83946,0.83946 5.62522,7.36446 10.63503,14.5 5.00981,7.13555 9.49462,12.97372 9.96623,12.97372 0.47162,0 5.5055,-6.31921 11.1864,-14.04268 L 760.5,607.91464 l 2,-0.50139 c 1.1,-0.27577 6.01368,-0.36906 10.9193,-0.20732 l 8.9193,0.29407 0.33546,1.01429 0.33547,1.01429 -16.00477,20.80981 C 758.20214,641.78378 751,651.58151 751,652.11112 c 0,0.52961 6.3858,9.83377 14.19067,20.6759 7.80487,10.84214 15.22346,21.22883 16.48575,23.08153 l 2.29508,3.36855 -0.54477,0.88145 L 782.88197,701 h -10.94305 -10.94306 l -4.24793,-5.79986 C 754.41157,692.01021 749.35,684.83119 745.5,679.24675 l -7,-10.15352 -1.16119,-0.0466 L 736.17762,669 724.5,685 712.82238,701 H 700.91119 689 Z M 658.41844,596.08551 c -1.14486,-0.49304 -3.28236,-2.32351 -4.75,-4.0677 L 651,588.84655 v -4.47294 -4.47293 l 1.51693,-2.93341 1.51692,-2.93342 2.93342,-1.51692 L 659.90068,571 H 664 h 4.09932 l 2.93341,1.51693 2.93342,1.51692 1.51692,2.93342 1.51693,2.93341 v 4.56435 4.56434 l -3.31203,3.61405 -3.31202,3.61404 -4.93798,0.36225 -4.93797,0.36224 z M 452.34375,533.9955 c -2.28594,-0.47256 -5.93464,-1.76646 -8.10822,-2.87534 l -3.95195,-2.01614 -6.44296,-6.95899 -6.44296,-6.95899 -4.62753,-9.34302 C 417.53243,495.26806 411.4188,478.90701 403.95846,455.5 c -6.85763,-21.51598 -13.68428,-39.5775 -22.67801,-60 l -7.48651,-17 -4.33916,-13 c -2.38654,-7.15 -5.14435,-16.825 -6.12846,-21.5 l -1.78929,-8.5 0.004,-14.5 0.004,-14.5 2.23381,-7.78546 2.2338,-7.78545 3.95559,-7.86727 3.95558,-7.86727 5.10778,-6.13761 5.10777,-6.13762 5.67998,-4.52346 5.67997,-4.52346 7.59184,-3.86784 7.59183,-3.86784 6.40817,-1.75634 6.40816,-1.75635 11.5,-0.0399 11.5,-0.0399 7.5,2.2959 7.5,2.2959 18.5,8.86577 18.5,8.86578 6.26589,1.19941 6.26588,1.19942 6.73412,-0.51898 6.73411,-0.51899 5,-1.69547 c 2.75,-0.9325 12.875,-5.42846 22.5,-9.991 l 17.5,-8.29553 6.5,-1.81987 6.5,-1.81987 11.5,-0.0534 11.5,-0.0534 7,2.3256 c 3.85,1.27907 9.86558,3.91828 13.36795,5.8649 l 6.36794,3.5393 7.40215,7.03132 7.40215,7.03131 4.43523,7.11605 4.43524,7.11604 2.46546,6.55012 c 1.356,3.60256 3.1761,9.99057 4.04467,14.19558 L 664,310.91568 v 12.13508 12.13507 l -1.97326,9.65709 c -2.57526,12.60324 -6.2274,23.21448 -14.45467,41.99782 -10.32721,23.57766 -16.48977,40.05031 -26.89865,71.90066 -13.16743,40.29132 -18.56051,52.49577 -28.20545,63.82846 l -4.31482,5.06986 -6.27234,3.34312 -6.27233,3.34312 -7.05424,0.0451 -7.05424,0.0451 -5.54563,-2.55923 -5.54563,-2.55923 -3.5688,-3.13344 -3.56879,-3.13344 -4.97219,-7.26545 C 535.56425,511.76945 528.69922,500.5125 523.04333,490.75 517.38744,480.9875 512.41928,473 512.00298,473 c -0.4163,0 -4.69978,7.3125 -9.51884,16.25 -4.81907,8.9375 -11.18198,19.9309 -14.13981,24.42977 l -5.37787,8.17978 -4.73323,4.20859 -4.73323,4.20859 -4,1.77899 -4,1.77899 -4.5,0.51 -4.5,0.50999 z m 11.76927,-25.07598 2.92176,-2.08047 3.84914,-5.66953 c 3.2456,-4.78054 8.20269,-13.39098 25.46734,-44.23659 l 1.99653,-3.56708 -3.06547,-4.43292 c -1.68601,-2.43811 -6.82676,-8.91729 -11.4239,-14.39817 l -8.35842,-9.96523 -6,-4.81907 c -3.3,-2.65049 -6.17213,-5.32003 -6.38252,-5.93231 l -0.38251,-1.11324 6.38251,0.53845 6.38252,0.53845 5.65179,2.1442 c 7.08337,2.68732 11.85212,5.87919 20.94019,14.01595 l 7.16958,6.41909 1.96846,-2.70226 c 1.08265,-1.48624 5.62674,-7.30497 10.09797,-12.93052 L 529.45752,410.5 542.47876,397.48976 555.5,384.47952 565,377.29071 c 5.225,-3.95385 13.28433,-9.46174 17.90961,-12.23976 L 591.31922,360 h 1.99875 1.99875 l -10.43791,10.75 c -15.69305,16.16227 -28.13854,32.16607 -48.39758,62.23503 L 525,450.02575 v 1.55695 c 0,0.85632 1.28786,3.43803 2.8619,5.73712 1.57405,2.2991 7.71232,12.50518 13.64061,22.68018 12.48235,21.42404 15.12187,25.27177 19.60549,28.57968 L 564.38856,511 h 3.40143 3.40143 l 2.97015,-1.75 2.97015,-1.75 3.54917,-5.34276 c 4.9773,-7.49261 10.41235,-20.47036 15.83544,-37.81169 12.52253,-40.04311 20.64077,-62.22965 31.84015,-87.01672 3.02457,-6.69415 6.86148,-16.14415 8.52647,-21 L 639.91021,347.5 641.4551,338.61901 643,329.73802 v -7.4216 -7.42161 l -1.59715,-7.1974 -1.59714,-7.19741 -3.55278,-7.5 -3.55278,-7.5 -7.10008,-7.07953 -7.10007,-7.07953 -5.61178,-2.63438 C 605.87384,265.41375 600.06388,264.05097 593,264.04158 l -5.5,-0.007 -7,1.8335 -7,1.8335 -15,7.02966 c -8.25,3.86632 -18.15,8.09603 -22,9.39936 l -7,2.3697 h -15 -15 l -7.13317,-2.2433 -7.13318,-2.2433 -13.38428,-6.4357 c -7.36135,-3.53964 -16.83077,-7.59266 -21.04314,-9.0067 L 443.14737,264 h -7.89219 -7.89218 l -5.4315,1.59538 c -2.98732,0.87746 -7.99604,2.95292 -11.13048,4.61213 l -5.69897,3.01675 -4.72204,4.63787 c -2.59712,2.55083 -6.37742,7.19046 -8.40068,10.31029 l -3.67864,5.67243 -2.40035,7.32757 L 383.5,308.5 l 0.0534,14.5 0.0534,14.5 2.66217,10 c 3.08738,11.59718 7.88522,24.15489 17.00183,44.5 8.29549,18.51264 15.13741,36.94409 22.72428,61.21691 8.57061,27.42012 13.77784,40.18347 20.23949,49.6086 l 2.96547,4.3255 3.15001,1.92076 3.15001,1.92075 2.84563,0.004 2.84563,0.004 z"
         id="path497" />
      <path
         style="fill:#172442"
         d="m 279,703.30915 c -4.27328,-0.71533 -12.29088,-3.48101 -17.16428,-5.92083 l -4.66427,-2.33513 -5.92401,-5.48459 -5.92401,-5.48459 -3.06634,-5.79201 c -1.68648,-3.1856 -3.78425,-8.23618 -4.66171,-11.2235 L 236,661.637 V 653 644.363 l 1.59538,-5.4315 c 0.87746,-2.98732 2.97523,-8.0379 4.66171,-11.2235 l 3.06634,-5.79201 5.79444,-5.36463 5.79445,-5.36464 5.40562,-2.55726 c 2.97309,-1.4065 7.38032,-3.01251 9.79384,-3.56892 l 4.38822,-1.01165 6.85566,-0.0244 6.85565,-0.0245 6.14435,1.57135 6.14434,1.57134 5.138,2.874 5.13799,2.87399 0.61201,-0.61201 0.612,-0.612 v -23.26001 -23.26001 l 1.62147,-0.32333 c 0.8918,-0.17782 5.0543,-0.0983 9.25,0.17668 l 7.62853,0.5 0.25772,60.67084 0.25771,60.67083 -3.75771,3.13026 -3.75772,3.13026 -8,3.94584 -8,3.94584 -7.31538,1.50306 -7.31537,1.50307 -6.68463,-0.13618 c -3.67654,-0.0749 -7.80962,-0.3245 -9.18462,-0.55467 z m 23.44495,-21.16956 c 2.71972,-1.20978 6.43222,-3.334 8.25,-4.72048 L 314,674.89822 v -18.99877 -18.99877 l -1.40499,-2.70034 c -1.97042,-3.7871 -5.24279,-6.55321 -11.39528,-9.63235 l -5.30027,-2.65263 -6.25799,-0.58438 -6.25798,-0.58438 -5.79724,1.6853 -5.79723,1.6853 -4.78696,4.47764 -4.78695,4.47763 -2.34206,5.21377 -2.34206,5.21376 -0.0155,9 -0.0155,9 2.68919,5.5 c 3.06682,6.27233 4.7899,8.39726 10.0326,12.3724 l 3.72179,2.82194 4.27821,1.39511 4.27821,1.39511 7.5,-0.32268 7.5,-0.32269 z M 389,701.4334 l -6.5,-1.4076 -6,-2.95883 -6,-2.95883 -5.73423,-5.12001 -5.73424,-5.12 -4.26576,-8.60867 -4.26577,-8.60868 0.0324,-13.57539 0.0324,-13.57539 2.2405,-5.6192 2.24049,-5.61921 3.96902,-5.54266 3.96901,-5.54266 6.02253,-4.0217 c 3.3124,-2.21193 8.60353,-5.0402 11.75808,-6.28505 l 5.73554,-2.26336 11.5,-0.0531 11.5,-0.0531 5.78462,1.89778 5.78461,1.89778 6.00053,4.1759 6.00052,4.1759 3.89658,5.18586 3.89658,5.18586 2.24015,5.74046 2.24016,5.74046 0.0781,9.5 0.0781,9.5 -36.78613,0.26236 -36.78612,0.26236 -0.50959,1.32795 -0.50958,1.32796 2.06922,5.53049 2.06922,5.5305 3.53906,3.64405 3.53906,3.64405 5.18743,2.70612 5.18743,2.70612 9.5,0.0187 9.5,0.0187 5.80023,-2.70736 c 3.19012,-1.48904 7.08459,-3.6219 8.65437,-4.73968 C 427.52438,675.91455 429.2872,675 429.87198,675 h 1.06323 l 4.0324,5.34087 4.03239,5.34087 v 1.5751 1.5751 l -3.90283,3.0911 c -2.14655,1.7001 -6.75905,4.41806 -10.25,6.03992 l -6.34717,2.94882 -6.5,1.03656 c -8.51061,1.35718 -15.02882,1.21125 -23,-0.51494 z m 36,-60.47324 c 0,-1.12191 -0.88119,-3.7671 -1.95819,-5.87821 l -1.9582,-3.83838 -4.53175,-3.98901 -4.53176,-3.98901 -4.51454,-1.26399 -4.51455,-1.264 -7.48419,0.48031 -7.4842,0.48031 -4.73488,2.92734 -4.73487,2.92735 -2.7576,4.47357 -2.7576,4.47356 -0.64383,3.25 L 371.75,643 H 398.375 425 Z m 178.13174,61.02872 c -2.40255,-0.50873 -6.31144,-1.86564 -8.68643,-3.01535 l -4.31816,-2.09039 -3.66075,-4.05201 c -2.01341,-2.2286 -4.40451,-5.68981 -5.31357,-7.69157 L 579.5,681.5 l -0.5,-28 -0.5,-28 -7.5,-0.5 -7.5,-0.5 -0.29222,-7.7587 -0.29222,-7.7587 2.29222,-0.84402 2.29222,-0.84402 3.63615,0.44883 3.63615,0.44884 2.08322,-1.11491 2.08322,-1.1149 0.28063,-12.23121 L 579.5,581.5 h 9.5 9.5 l 0.28336,11.93773 0.28336,11.93774 1.07521,1.29555 1.07521,1.29555 14.06427,-0.46229 14.06427,-0.46228 1.32716,1.10145 1.32716,1.10144 v 7.3585 7.35851 l -2.25,0.5258 c -1.2375,0.2892 -8.55,0.63527 -16.25,0.76906 l -14,0.24324 0.0852,23.62542 0.0852,23.62542 1.91481,3.27005 c 1.05315,1.79853 3.18692,4.21709 4.74172,5.37458 l 2.82691,2.10453 7.67309,-0.0295 7.67309,-0.0295 3.32183,-1.78329 3.32184,-1.78329 1.33309,1.10636 1.33309,1.10637 1.10541,6.34774 1.10541,6.34773 -0.58188,1.51636 -0.58188,1.51636 -5.03009,2.16388 -5.03009,2.16389 -8.64837,0.3854 -8.64836,0.3854 z M 462.70046,700.36713 462,699.66667 v -45.72635 -45.72634 l 1.58179,-0.60699 c 2.0515,-0.78724 13.78492,-0.78724 15.83642,0 L 481,608.21398 v 2.22634 c 0,1.22449 0.25132,2.47767 0.55849,2.78484 l 0.55849,0.55849 5.65041,-3.4025 c 7.03231,-4.23464 10.70843,-5.33093 20.3427,-6.06663 l 7.6101,-0.58113 5.3899,1.26907 c 6.74732,1.58867 12.18675,4.26313 17.60371,8.65541 l 4.21381,3.41671 3.56146,7.21271 3.56145,7.21271 0.99728,9 0.99727,9 -0.27253,25.5 -0.27254,25.5 -9.91736,0.28823 -9.91735,0.28823 -0.81733,-1.28823 -0.81733,-1.28823 -0.0592,-29 -0.0592,-29 -1.34941,-3.78241 c -0.74217,-2.08032 -2.40219,-5.31884 -3.68893,-7.19671 l -2.33952,-3.41431 -4.01717,-2.30328 L 514.5,621.5 l -7.5,0.0232 -7.5,0.0232 -4.19207,2.21759 -4.19207,2.21759 -2.48932,3.26366 c -1.36912,1.79502 -3.06891,4.61167 -3.7773,6.25923 l -1.28798,2.99557 -0.53063,31 -0.53063,31 -9.54954,0.28379 -9.54954,0.2838 z m 191,0 L 653,699.66667 v -45.29815 -45.29815 l 1.93426,-1.03519 1.93426,-1.03518 7.31574,0.0153 7.31574,0.0153 1.26021,0.80001 1.26021,0.80002 -0.26021,45.93467 L 673.5,700.5 l -9.54954,0.28379 -9.54954,0.2838 z M 658.5,595.59749 c -1.65,-0.72833 -3.9,-2.33296 -5,-3.56585 l -2,-2.24162 v -5.87578 -5.87578 l 3.26923,-3.26923 3.26923,-3.26923 H 664 h 5.96154 l 3.15709,3.1571 3.1571,3.15709 0.4178,4.84291 0.4178,4.8429 -2.07756,3.31018 -2.07756,3.31017 -3.44599,1.43983 c -4.21382,1.76064 -7.08403,1.77037 -11.01022,0.0373 z"
         id="path496" />
    </g>
  </g>
</svg>
